<?xml version="1.0" encoding="utf-8"?>
<!-- Generator: Adobe Illustrator 16.0.0, SVG Export Plug-In . SVG Version: 6.00 Build 0)  -->
<!DOCTYPE svg PUBLIC "-//W3C//DTD SVG 1.1//EN" "http://www.w3.org/Graphics/SVG/1.1/DTD/svg11.dtd">
<svg version="1.1" id="Layer_1" xmlns="http://www.w3.org/2000/svg" xmlns:xlink="http://www.w3.org/1999/xlink" x="0px" y="0px"
	 width="1000px" height="1000px" viewBox="0 0 1000 1000" enable-background="new 0 0 1000 1000" xml:space="preserve">
<g>
	<g>
		<text transform="matrix(1 0 0 1 86.9678 694.8838)" fill="#1F2B3B" font-family="'Pacifico-Regular'" font-size="186.4977">Recipe</text>
		<text transform="matrix(1 0 0 1 599.0449 694.8838)" fill="#1F2B3B" font-family="'Pacifico-Regular'" font-size="186.4977">Bük</text>
	</g>
	<path fill="#E2725C" d="M720.004,348.358c-19.516,0-46.652,11.27-90.486,11.27c-14.961,0-30.109,2.176-31.637-4.903
		c-15.119-70.103-82.77-134.115-163.74-134.115c-92.225,0-166.991,74.764-166.991,166.989c0,92.227,74.766,166.99,166.991,166.99
		c80.957,0,142.775-55.942,163.73-134.075c1.875-6.994,16.684-4.906,31.646-4.906c43.834,0,70.971,11.27,90.486,11.27v-0.037
		c21.67,0,39.242-17.572,39.242-39.241S741.674,348.358,720.004,348.358z M434.141,483.896
		c-92.401-55.105-92.186-114.109-92.186-114.109c0-26.036,21.105-47.142,47.145-47.142c21.18,0,39.092,13.966,45.041,33.189
		c5.946-19.224,23.858-33.189,45.038-33.189c26.037,0,47.142,21.105,47.142,47.142C522.205,428.232,434.141,483.896,434.141,483.896
		z M720.004,403.74c-8.914,0-16.141-7.228-16.141-16.142c0-8.913,7.227-16.141,16.141-16.141s16.141,7.228,16.141,16.141
		C736.145,396.513,728.918,403.74,720.004,403.74z"/>
</g>
</svg>
