<?xml version="1.0" encoding="utf-8"?>
<!-- Generator: Adobe Illustrator 16.0.0, SVG Export Plug-In . SVG Version: 6.00 Build 0)  -->
<!DOCTYPE svg PUBLIC "-//W3C//DTD SVG 1.1//EN" "http://www.w3.org/Graphics/SVG/1.1/DTD/svg11.dtd">
<svg version="1.1" id="Layer_1" xmlns="http://www.w3.org/2000/svg" xmlns:xlink="http://www.w3.org/1999/xlink" x="0px" y="0px"
	 width="1000px" height="1000px" viewBox="0 0 1000 1000" enable-background="new 0 0 1000 1000" xml:space="preserve">
<g>
	<g>
		<g>
			<path fill="#1F2B3B" d="M253.067,579.871c0,2.914-0.487,5.98-1.457,9.197c-0.972,3.219-2.459,6.39-4.462,9.516
				c-2.003,3.128-4.569,6.147-7.695,9.062c-3.127,2.914-6.875,5.524-11.246,7.831c-4.371,2.308-9.35,4.234-14.935,5.782
				c-5.586,1.549-11.869,2.536-18.85,2.96c4.249,1.579,7.8,3.612,10.655,6.102c2.853,2.489,5.236,5.267,7.148,8.332
				c1.912,3.066,3.429,6.299,4.553,9.698c1.123,3.4,2.079,6.738,2.869,10.017c0.789,3.278,1.502,6.42,2.14,9.425
				c0.637,3.006,1.396,5.646,2.276,7.923c0.879,2.276,1.988,4.098,3.324,5.464c1.334,1.366,3.126,2.049,5.373,2.049
				c2.063,0,4.326-0.349,6.784-1.047c2.458-0.697,4.977-1.685,7.558-2.96c2.58-1.274,5.129-2.791,7.649-4.553
				c2.519-1.761,4.872-3.702,7.058-5.828l10.563,17.849c0-0.061-0.578,0.318-1.73,1.138c-1.154,0.819-2.763,1.853-4.826,3.097
				c-2.065,1.245-4.508,2.61-7.331,4.098c-2.823,1.486-5.935,2.868-9.334,4.144c-3.4,1.274-6.998,2.336-10.791,3.187
				c-3.794,0.85-7.665,1.275-11.61,1.275c-4.432,0-8.211-1.093-11.337-3.278c-3.127-2.186-5.783-5.069-7.968-8.651
				c-2.185-3.581-4.006-7.663-5.463-12.248c-1.457-4.583-2.732-9.272-3.825-14.069c-1.093-4.795-2.11-9.484-3.051-14.069
				c-0.942-4.583-1.989-8.665-3.142-12.248c-1.154-3.581-2.52-6.465-4.098-8.65c-1.579-2.186-3.551-3.278-5.919-3.278h-5.737
				c-1.215,13.295-2.732,25.21-4.553,35.742c-1.821,10.533-4.234,19.474-7.24,26.818c-3.005,7.345-6.77,12.961-11.292,16.847
				c-4.523,3.885-10.063,5.828-16.619,5.828c-4.858,0-9.304-0.927-13.341-2.777c-4.038-1.853-7.681-4.387-10.928-7.604
				c-3.249-3.218-6.087-6.981-8.514-11.291c-2.429-4.311-4.448-8.938-6.056-13.888c-1.609-4.947-2.823-10.063-3.642-15.344
				c-0.82-5.282-1.229-10.532-1.229-15.754c0-9.41,1.168-18.623,3.506-27.638c2.336-9.016,5.706-17.53,10.108-25.544
				c4.401-8.014,9.728-15.374,15.982-22.083c6.252-6.707,13.279-12.505,21.081-17.393c7.8-4.886,16.3-8.696,25.498-11.429
				c9.197-2.731,18.926-4.098,29.186-4.098c4.553,0,9.075,0.426,13.568,1.274c4.492,0.852,8.772,2.095,12.84,3.734
				c4.066,1.639,7.846,3.674,11.337,6.101c3.49,2.429,6.496,5.207,9.015,8.333c2.519,3.127,4.508,6.602,5.965,10.427
				C252.339,571.22,253.067,575.379,253.067,579.871z M196.517,557.925c-10.017,0-18.957,1.396-26.818,4.188
				c-7.863,2.793-14.768,6.557-20.717,11.292c-5.951,4.735-11.019,10.23-15.208,16.482c-4.189,6.254-7.59,12.811-10.199,19.67
				c-2.611,6.861-4.508,13.812-5.691,20.854c-1.184,7.043-1.776,13.75-1.776,20.125c0,4.917,0.424,9.851,1.275,14.798
				c0.85,4.948,2.186,9.395,4.007,13.341s4.173,7.148,7.058,9.606c2.883,2.459,6.358,3.688,10.427,3.688
				c2.063,0,3.884-0.804,5.464-2.413c1.578-1.607,2.974-3.764,4.188-6.466c1.214-2.7,2.277-5.828,3.188-9.379
				c0.911-3.552,1.669-7.24,2.276-11.064c0.606-3.825,1.093-7.68,1.457-11.565c0.364-3.884,0.652-7.526,0.865-10.928
				c0.212-3.398,0.349-6.42,0.41-9.061c0.06-2.641,0.091-4.658,0.091-6.056c-4.735-2.245-8.333-4.34-10.791-6.283
				c-2.459-1.942-3.688-4.189-3.688-6.738c0-0.606,0.045-1.335,0.136-2.186c0.091-0.85,0.288-1.64,0.592-2.368
				c0.303-0.729,0.743-1.351,1.32-1.867c0.576-0.515,1.35-0.773,2.322-0.773c0.424,0,1.274,0.077,2.549,0.228
				c1.275,0.152,2.61,0.334,4.007,0.546c1.396,0.214,2.687,0.396,3.87,0.547c1.184,0.152,1.958,0.228,2.322,0.228l0.091-1.912
				c0.06-0.971,0.167-2.307,0.318-4.007c0.151-1.699,0.41-3.521,0.774-5.464c0.364-1.942,0.895-3.9,1.593-5.874
				c0.697-1.972,1.624-3.763,2.778-5.372c1.152-1.608,2.534-2.914,4.143-3.916c1.608-1.002,3.566-1.503,5.874-1.503
				c3.035,0,5.054,0.684,6.056,2.05c1.002,1.365,1.503,3.111,1.503,5.235v0.82c-0.062,2.308-0.41,5.358-1.047,9.151
				c-0.638,3.795-1.229,8.182-1.776,13.159c9.895-0.183,18.061-1.169,24.496-2.96c6.434-1.79,11.534-4.053,15.299-6.784
				c3.763-2.732,6.404-5.722,7.922-8.97c1.517-3.247,2.276-6.389,2.276-9.425c0-2.974-0.714-5.828-2.14-8.561
				c-1.427-2.731-3.538-5.145-6.329-7.239c-2.793-2.095-6.253-3.764-10.381-5.009C206.776,558.548,201.981,557.925,196.517,557.925z
				"/>
			<path fill="#1F2B3B" d="M284.211,694.884c-5.707,0-10.7-1.031-14.98-3.096c-4.28-2.063-7.847-4.841-10.7-8.333
				c-2.854-3.49-4.995-7.526-6.42-12.111c-1.427-4.583-2.14-9.394-2.14-14.434c0-3.399,0.333-6.996,1.001-10.791
				c0.667-3.793,1.685-7.513,3.051-11.155c1.366-3.643,3.081-7.117,5.145-10.427c2.063-3.308,4.477-6.222,7.24-8.742
				c2.762-2.519,5.858-4.521,9.288-6.01c3.429-1.487,7.24-2.231,11.429-2.231c3.399,0,6.557,0.547,9.471,1.64
				s5.448,2.626,7.604,4.599c2.154,1.974,3.839,4.356,5.054,7.148c1.213,2.793,1.821,5.919,1.821,9.38
				c0,3.765-0.926,7.528-2.777,11.291c-1.853,3.766-4.417,7.316-7.695,10.655c-3.278,3.339-7.18,6.314-11.702,8.924
				c-4.523,2.611-9.425,4.645-14.707,6.102c0.911,1.639,1.806,3.005,2.687,4.098c0.879,1.093,1.776,1.943,2.687,2.55
				c0.911,0.607,1.867,1.033,2.868,1.274c1.002,0.243,2.079,0.364,3.233,0.364c3.643,0,7.481-0.729,11.52-2.186
				c4.037-1.457,7.968-3.278,11.792-5.464s7.436-4.567,10.837-7.148c3.399-2.579,6.283-5.022,8.651-7.33l11.747,12.202
				c-5.343,5.525-11.019,10.413-17.029,14.661c-2.611,1.821-5.418,3.613-8.423,5.373c-3.005,1.762-6.163,3.323-9.471,4.689
				c-3.31,1.366-6.739,2.459-10.29,3.278S287.854,694.884,284.211,694.884z M272.1,652.084c2.186,0,4.567-0.561,7.148-1.685
				c2.58-1.123,4.977-2.564,7.194-4.325c2.215-1.761,4.082-3.673,5.601-5.737c1.517-2.063,2.276-4.066,2.276-6.01
				c0-2.732-0.501-4.978-1.502-6.739c-1.002-1.76-2.231-2.641-3.688-2.641c-2.611,0-4.842,0.486-6.693,1.457
				c-1.853,0.972-3.4,2.23-4.644,3.779c-1.245,1.548-2.247,3.31-3.005,5.281c-0.76,1.974-1.336,3.961-1.73,5.965
				c-0.396,2.003-0.653,3.947-0.774,5.828C272.159,649.14,272.1,650.749,272.1,652.084z"/>
			<path fill="#1F2B3B" d="M353.237,694.884c-5.586,0-10.488-1.031-14.707-3.096c-4.22-2.063-7.756-4.827-10.609-8.287
				c-2.854-3.461-5.008-7.468-6.465-12.021s-2.186-9.288-2.186-14.206c0-3.52,0.364-7.193,1.093-11.019
				c0.729-3.824,1.806-7.572,3.232-11.246c1.426-3.673,3.188-7.179,5.282-10.518c2.095-3.339,4.522-6.269,7.285-8.788
				c2.762-2.519,5.842-4.521,9.243-6.01c3.399-1.487,7.133-2.231,11.201-2.231c3.46,0,6.662,0.532,9.607,1.594
				c2.944,1.063,5.464,2.535,7.559,4.417c2.094,1.882,3.733,4.113,4.917,6.692c1.184,2.581,1.775,5.358,1.775,8.333
				c0,2.064-0.273,4.098-0.819,6.101c-0.546,2.004-1.352,3.811-2.413,5.419c-1.063,1.608-2.354,2.899-3.87,3.87
				c-1.519,0.972-3.219,1.457-5.1,1.457c-2.854,0-4.721-0.759-5.601-2.277c-0.881-1.517-1.32-3.611-1.32-6.283
				c0-1.093,0.045-2.245,0.137-3.46c0.091-1.214,0.136-2.307,0.136-3.278c0-1.457-0.152-2.671-0.455-3.643
				c-0.305-0.971-0.972-1.457-2.003-1.457c-2.49,0-4.614,0.592-6.375,1.775c-1.762,1.184-3.264,2.732-4.508,4.645
				c-1.245,1.912-2.231,4.068-2.959,6.466c-0.729,2.398-1.306,4.78-1.73,7.148c-0.426,2.367-0.699,4.63-0.82,6.784
				c-0.122,2.155-0.182,3.961-0.182,5.418c0,2.186,0.196,4.462,0.592,6.83c0.394,2.367,1.138,4.539,2.231,6.511
				c1.093,1.974,2.58,3.612,4.462,4.917c1.881,1.307,4.31,1.958,7.285,1.958c2.914,0,6.131-0.895,9.653-2.687
				c3.52-1.79,7.057-4.052,10.609-6.784c3.551-2.731,6.935-5.736,10.153-9.015c3.217-3.278,5.979-6.375,8.287-9.289l6.284,10.563
				c-4.553,6.497-9.471,12.294-14.752,17.394c-2.247,2.186-4.689,4.311-7.331,6.374c-2.641,2.064-5.404,3.901-8.287,5.51
				c-2.884,1.609-5.889,2.914-9.015,3.915C359.625,694.383,356.454,694.884,353.237,694.884z"/>
			<path fill="#1F2B3B" d="M447.487,675.487c-2.186,2.003-4.903,4.144-8.15,6.42c-3.249,2.276-6.754,4.371-10.518,6.283
				c-3.765,1.912-7.604,3.506-11.52,4.781c-3.916,1.274-7.635,1.912-11.155,1.912c-3.157,0-5.813-0.439-7.968-1.32
				c-2.156-0.88-3.901-2.108-5.236-3.688c-1.336-1.578-2.292-3.506-2.868-5.782c-0.578-2.276-0.865-4.781-0.865-7.513
				c0-3.824,0.439-8.271,1.32-13.341c0.879-5.068,1.958-10.32,3.233-15.754c1.275-5.433,2.625-10.851,4.052-16.255
				c1.426-5.402,2.687-10.381,3.779-14.935c0.424-1.578,1.275-2.928,2.55-4.052c1.275-1.123,2.716-2.033,4.326-2.732
				c1.608-0.697,3.278-1.214,5.008-1.548c1.73-0.333,3.292-0.501,4.69-0.501c2.55,0,4.28,0.471,5.19,1.411
				c0.911,0.942,1.366,2.201,1.366,3.779c0,1.336-0.305,3.265-0.911,5.783c-0.607,2.52-1.366,5.372-2.277,8.56
				c-0.91,3.188-1.882,6.618-2.914,10.29c-1.033,3.674-2.003,7.347-2.914,11.019c-0.911,3.674-1.67,7.256-2.277,10.746
				c-0.607,3.491-0.911,6.633-0.911,9.425c0,2.731,0.303,4.903,0.911,6.511c0.606,1.609,1.851,2.413,3.734,2.413
				c2.186,0,4.613-0.758,7.285-2.276c2.671-1.517,5.373-3.354,8.105-5.51c2.732-2.153,5.402-4.385,8.013-6.692
				c2.61-2.307,4.917-4.28,6.921-5.92V675.487z M406.782,581.874c0-1.396,0.303-2.974,0.911-4.735
				c0.606-1.76,1.594-3.415,2.959-4.963s3.187-2.853,5.464-3.916c2.276-1.061,5.114-1.593,8.514-1.593
				c2.125,0,4.128,0.243,6.01,0.729c1.881,0.486,3.521,1.229,4.917,2.23c1.396,1.002,2.504,2.322,3.324,3.962
				c0.82,1.639,1.229,3.582,1.229,5.827c0,2.065-0.334,4.068-1.001,6.011c-0.669,1.943-1.73,3.674-3.188,5.19
				c-1.457,1.519-3.294,2.748-5.509,3.688c-2.217,0.941-4.872,1.411-7.968,1.411c-5.343,0-9.288-1.259-11.838-3.779
				C408.057,589.418,406.782,586.063,406.782,581.874z"/>
			<path fill="#1F2B3B" d="M478.176,678.675c6.131,0,11.716-0.606,16.755-1.821c5.039-1.214,9.608-2.854,13.706-4.918
				c4.098-2.063,7.799-4.476,11.109-7.239c3.309-2.762,6.297-5.722,8.971-8.879l1,20.854c-1.943,2.368-4.295,4.66-7.057,6.876
				c-2.764,2.217-5.783,4.158-9.061,5.827c-3.279,1.671-6.725,3.006-10.336,4.007c-3.613,1.002-7.18,1.503-10.7,1.503
				c-0.425,0-0.956-0.06-1.593-0.182c-0.638-0.121-1.746-0.333-3.324-0.638c-1.58-0.304-3.84-0.713-6.785-1.229
				c-2.945-0.516-6.936-1.139-11.975-1.867v1.64c0,11.048-0.926,21.081-2.777,30.097c-1.853,9.015-4.326,16.71-7.422,23.084
				c-3.096,6.375-6.647,11.292-10.654,14.752c-4.007,3.461-8.166,5.191-12.476,5.191c-3.46,0-6.343-0.852-8.651-2.55
				c-2.307-1.7-4.144-3.993-5.51-6.876c-1.366-2.884-2.336-6.253-2.914-10.107c-0.577-3.856-0.865-7.938-0.865-12.248
				c0-2.49,0.396-5.298,1.184-8.424c0.79-3.127,1.853-6.405,3.188-9.835c1.336-3.43,2.838-6.921,4.507-10.472
				c1.67-3.552,3.384-6.998,5.145-10.336c4.128-7.771,8.833-15.784,14.115-24.041c0.667-4.735,1.35-9.591,2.049-14.57
				c0.697-4.977,1.578-9.803,2.641-14.479c1.062-4.674,2.397-9.106,4.007-13.295c1.608-4.189,3.672-7.832,6.192-10.928
				c2.519-3.097,5.539-5.555,9.061-7.376c3.521-1.821,7.771-2.732,12.749-2.732c3.702,0,7.163,0.501,10.381,1.503
				c3.217,1.001,6.04,2.626,8.469,4.872c2.428,2.246,4.339,5.145,5.737,8.696c1.396,3.551,2.094,7.908,2.094,13.067
				c0,4.129-0.607,8.12-1.82,11.975c-1.215,3.856-3.112,7.544-5.692,11.064c-2.581,3.521-5.859,6.815-9.835,9.88
				c-3.977,3.066-8.696,5.814-14.16,8.241L478.176,678.675z M435.012,735.043c0,0.485,0.105,1.274,0.319,2.367
				c0.212,1.093,0.561,2.186,1.047,3.278c0.485,1.093,1.123,2.063,1.913,2.914c0.788,0.85,1.76,1.275,2.914,1.275
				c1.031,0,1.881-0.563,2.55-1.685c0.667-1.125,1.213-2.627,1.639-4.508c0.424-1.883,0.729-4.007,0.911-6.375
				c0.182-2.367,0.333-4.796,0.455-7.285c0.121-2.489,0.196-4.917,0.228-7.285c0.03-2.367,0.105-4.493,0.228-6.374
				c0.182-3.278,0.318-6.056,0.41-8.332c0.091-2.276,0.167-4.175,0.228-5.691c0.06-1.7,0.121-3.126,0.182-4.28
				c-1.154,2.003-2.276,4.325-3.369,6.967c-1.093,2.641-2.126,5.387-3.096,8.241c-0.972,2.853-1.853,5.705-2.641,8.56
				c-0.79,2.853-1.473,5.51-2.049,7.968c-0.578,2.459-1.033,4.583-1.366,6.375C435.178,732.963,435.012,734.253,435.012,735.043z
				 M466.702,669.478c3.643-1.821,6.784-3.854,9.425-6.102c2.641-2.245,4.917-4.645,6.83-7.194c1.912-2.55,3.475-5.19,4.69-7.922
				c1.213-2.732,2.185-5.524,2.914-8.378c0.303-1.335,0.501-2.898,0.592-4.69c0.091-1.79-0.091-3.475-0.546-5.054
				c-0.456-1.578-1.245-2.928-2.368-4.053c-1.124-1.122-2.687-1.685-4.69-1.685c-2.247,0-4.22,0.624-5.919,1.867
				c-1.7,1.245-3.173,2.93-4.417,5.054c-1.245,2.126-2.277,4.645-3.096,7.559c-0.82,2.914-1.488,6.041-2.003,9.38
				c-0.517,3.339-0.881,6.815-1.093,10.427C466.807,662.299,466.702,665.896,466.702,669.478z"/>
			<path fill="#1F2B3B" d="M549.569,694.884c-5.707,0-10.7-1.031-14.979-3.096c-4.28-2.063-7.848-4.841-10.7-8.333
				c-2.854-3.49-4.994-7.526-6.42-12.111c-1.428-4.583-2.141-9.394-2.141-14.434c0-3.399,0.333-6.996,1.002-10.791
				c0.667-3.793,1.685-7.513,3.051-11.155s3.08-7.117,5.146-10.427c2.063-3.308,4.476-6.222,7.239-8.742
				c2.762-2.519,5.857-4.521,9.288-6.01c3.43-1.487,7.239-2.231,11.429-2.231c3.399,0,6.557,0.547,9.471,1.64
				s5.448,2.626,7.604,4.599c2.154,1.974,3.839,4.356,5.054,7.148c1.214,2.793,1.821,5.919,1.821,9.38
				c0,3.765-0.926,7.528-2.777,11.291c-1.853,3.766-4.416,7.316-7.694,10.655s-7.18,6.314-11.702,8.924
				c-4.523,2.611-9.425,4.645-14.706,6.102c0.91,1.639,1.806,3.005,2.686,4.098s1.776,1.943,2.687,2.55
				c0.911,0.607,1.867,1.033,2.869,1.274c1.001,0.243,2.078,0.364,3.232,0.364c3.643,0,7.481-0.729,11.52-2.186
				c4.036-1.457,7.968-3.278,11.793-5.464c3.824-2.186,7.436-4.567,10.836-7.148c3.399-2.579,6.283-5.022,8.651-7.33l11.747,12.202
				c-5.343,5.525-11.019,10.413-17.029,14.661c-2.61,1.821-5.418,3.613-8.423,5.373c-3.005,1.762-6.162,3.323-9.471,4.689
				c-3.31,1.366-6.738,2.459-10.29,3.278S553.212,694.884,549.569,694.884z M537.458,652.084c2.186,0,4.567-0.561,7.148-1.685
				c2.579-1.123,4.978-2.564,7.194-4.325c2.215-1.761,4.082-3.673,5.6-5.737c1.518-2.063,2.277-4.066,2.277-6.01
				c0-2.732-0.501-4.978-1.503-6.739c-1.002-1.76-2.231-2.641-3.688-2.641c-2.61,0-4.842,0.486-6.692,1.457
				c-1.853,0.972-3.401,2.23-4.645,3.779c-1.245,1.548-2.247,3.31-3.005,5.281c-0.76,1.974-1.336,3.961-1.73,5.965
				c-0.396,2.003-0.653,3.947-0.774,5.828C537.518,649.14,537.458,650.749,537.458,652.084z"/>
		</g>
		<g>
			<path fill="#1F2B3B" d="M604.509,573.77c-3.947,7.164-7.467,12.537-10.563,16.118c-3.096,3.583-5.614,5.373-7.559,5.373
				c-2.67,0-4.007-3.065-4.007-9.197c0-5.949,0.852-11.292,2.55-16.027c1.701-4.735,4.084-8.938,7.148-12.612
				c3.066-3.673,6.709-6.799,10.928-9.38c4.219-2.579,8.833-4.704,13.842-6.374c5.009-1.669,10.305-2.898,15.891-3.688
				c5.585-0.788,11.322-1.184,17.211-1.184c6.859,0,13.751,0.501,20.672,1.503c6.921,1.001,13.568,2.413,19.942,4.234
				c6.375,1.821,12.323,4.022,17.849,6.602c5.523,2.581,10.336,5.435,14.434,8.561c4.098,3.127,7.314,6.511,9.652,10.153
				c2.337,3.643,3.506,7.438,3.506,11.383c0,4.676-1.017,9.288-3.051,13.842c-2.034,4.553-5.222,8.666-9.562,12.339
				c-4.341,3.674-9.896,6.693-16.664,9.061c-6.771,2.368-14.889,3.643-24.359,3.825c6.01,0,11.261,0.956,15.754,2.868
				c4.492,1.912,8.255,4.493,11.292,7.74c3.034,3.249,5.312,6.998,6.829,11.246c1.517,4.251,2.277,8.713,2.277,13.387
				c0,3.824-0.517,7.711-1.549,11.656c-1.033,3.947-2.581,7.74-4.644,11.383c-2.065,3.643-4.645,7.058-7.741,10.244
				c-3.096,3.188-6.724,5.965-10.882,8.333c-4.159,2.367-8.849,4.234-14.069,5.601c-5.222,1.365-10.959,2.049-17.211,2.049
				c-3.947,0-8.104-0.26-12.476-0.774c-4.371-0.517-8.787-1.215-13.25-2.095c-4.462-0.881-8.849-1.928-13.158-3.142
				c-4.312-1.215-8.378-2.519-12.202-3.915c-1.701-0.425-3.203-1.062-4.508-1.913c-1.307-0.85-1.958-2.367-1.958-4.553
				c0-10.077,0.258-20.398,0.774-30.962c0.515-10.563,1.562-20.883,3.142-30.961c1.577-10.077,3.854-19.685,6.829-28.822
				c2.974-9.136,6.921-17.315,11.839-24.541c4.31-2.974,8.226-4.462,11.747-4.462c4.431,0,8.134,2.489,11.109,7.467
				c-2.793,3.765-5.177,7.954-7.148,12.566c-1.974,4.614-3.628,9.457-4.963,14.525c-1.336,5.069-2.413,10.244-3.232,15.525
				c-0.82,5.282-1.473,10.443-1.958,15.481c-0.305,2.854-0.563,5.889-0.774,9.106c-0.213,3.218-0.409,6.496-0.592,9.835
				c-0.182,3.339-0.318,6.663-0.41,9.971c-0.091,3.31-0.136,6.481-0.136,9.517c0,0.486,0.014,1.153,0.045,2.003
				c0.03,0.852,0.105,1.73,0.228,2.641c0.121,0.911,0.304,1.746,0.547,2.505c0.242,0.76,0.606,1.32,1.093,1.685
				c3.702,1.215,7.679,2.247,11.929,3.096c4.249,0.852,8.499,1.275,12.749,1.275c5.159,0,10.168-0.622,15.025-1.867
				c4.856-1.243,9.166-3.217,12.932-5.919c3.763-2.7,6.784-6.161,9.061-10.381c2.276-4.219,3.415-9.334,3.415-15.345
				c0-3.52-0.669-6.449-2.004-8.787c-1.336-2.337-3.082-4.294-5.236-5.874c-2.155-1.578-4.614-2.837-7.376-3.779
				c-2.763-0.94-5.586-1.79-8.469-2.55c-2.884-0.758-5.707-1.502-8.469-2.23c-2.763-0.729-5.222-1.653-7.376-2.777
				c-2.155-1.123-3.901-2.519-5.236-4.189c-1.336-1.669-2.003-3.839-2.003-6.511c0-1.274,0.075-2.382,0.228-3.324
				c0.15-0.94,0.515-1.714,1.093-2.321c0.576-0.606,1.426-1.062,2.55-1.366c1.122-0.303,2.654-0.455,4.599-0.455
				c2.609,0,4.992,0.106,7.148,0.318c2.154,0.214,4.477,0.318,6.966,0.318c5.828,0,11.095-0.713,15.8-2.14
				c4.704-1.426,8.711-3.354,12.021-5.782c3.308-2.428,5.857-5.267,7.649-8.515c1.79-3.247,2.687-6.723,2.687-10.427
				c0-2.428-0.699-4.658-2.095-6.693c-1.397-2.033-3.355-3.854-5.874-5.464c-2.52-1.607-5.479-3.02-8.878-4.234
				c-3.401-1.214-7.104-2.23-11.11-3.051c-4.007-0.819-8.227-1.426-12.657-1.821c-4.433-0.394-8.925-0.592-13.478-0.592
				c-5.769,0-11.46,0.319-17.074,0.956c-5.616,0.638-10.837,1.609-15.663,2.914c-4.826,1.307-9.106,2.945-12.84,4.918
				C609.29,568.868,606.452,571.16,604.509,573.77z"/>
			<path fill="#1F2B3B" d="M796.471,613.382c0,1.64-0.182,3.87-0.546,6.693s-0.836,5.919-1.412,9.288
				c-0.577,3.37-1.199,6.846-1.866,10.427c-0.669,3.583-1.291,6.921-1.867,10.018c-0.578,3.096-1.047,5.813-1.411,8.15
				s-0.547,3.961-0.547,4.871c0,1.701,0.03,3.265,0.091,4.69c0.061,1.427,0.242,2.672,0.547,3.733
				c0.303,1.063,0.773,1.883,1.411,2.459c0.638,0.577,1.563,0.865,2.777,0.865c1.335,0,2.96-0.333,4.872-1.002
				c1.912-0.668,3.945-1.563,6.102-2.687c2.154-1.123,4.355-2.397,6.602-3.825c2.245-1.425,4.386-2.928,6.42-4.507
				c2.033-1.578,3.885-3.142,5.556-4.69c1.669-1.548,3.019-2.989,4.052-4.325c0,2.003,0.015,3.824,0.046,5.464
				c0.029,1.639,0.045,3.203,0.045,4.689c0,1.488,0.015,3.021,0.046,4.599c0.03,1.58,0.046,3.34,0.046,5.282
				c-1.337,1.336-2.991,2.763-4.963,4.279c-1.974,1.519-4.159,3.037-6.557,4.554c-2.399,1.519-4.949,2.976-7.649,4.371
				c-2.702,1.397-5.419,2.626-8.15,3.688c-2.732,1.063-5.434,1.913-8.104,2.55c-2.672,0.638-5.161,0.957-7.468,0.957
				c-2.308,0-4.279-0.456-5.919-1.366c-1.639-0.911-3.051-2.186-4.234-3.825c-1.184-1.639-2.186-3.597-3.005-5.873
				s-1.534-4.811-2.14-7.604c-2.186,2.854-4.494,5.479-6.921,7.878c-2.429,2.398-4.903,4.478-7.422,6.237
				c-2.52,1.762-5.069,3.142-7.649,4.144c-2.581,1.002-5.085,1.502-7.513,1.502c-2.004,0-3.886-0.332-5.646-1.001
				c-1.762-0.668-3.324-1.79-4.69-3.369c-1.366-1.578-2.444-3.657-3.232-6.238c-0.79-2.58-1.184-5.782-1.184-9.607
				c0-4.674,0.561-10.623,1.685-17.849c1.122-7.224,2.504-15.48,4.144-24.769c0.12-0.911,0.349-2.141,0.683-3.688
				c0.333-1.548,0.788-3.232,1.366-5.054c0.576-1.821,1.289-3.673,2.14-5.555c0.85-1.881,1.852-3.582,3.005-5.1
				c1.152-1.517,2.505-2.762,4.053-3.733c1.548-0.971,3.292-1.487,5.236-1.549c3.217,0.123,5.523,0.532,6.921,1.229
				c1.396,0.699,2.094,1.563,2.094,2.596c-0.546,3.219-1.138,6.8-1.775,10.745c-0.638,3.947-1.291,7.923-1.958,11.93
				c-0.669,4.007-1.306,7.908-1.912,11.701c-0.607,3.795-1.154,7.18-1.64,10.153c-0.486,2.976-0.865,5.373-1.138,7.194
				c-0.273,1.821-0.41,2.764-0.41,2.823c0,1.093,0.105,2.14,0.318,3.142s0.531,1.898,0.957,2.687
				c0.424,0.789,0.97,1.427,1.639,1.912c0.667,0.486,1.457,0.729,2.368,0.729c1.334,0,2.7-0.349,4.098-1.047
				c1.396-0.697,2.716-1.699,3.961-3.006c1.244-1.305,2.353-2.914,3.324-4.826c0.97-1.912,1.698-4.082,2.186-6.511l9.015-46.26
				c0.304-1.457,1.532-2.687,3.688-3.688c2.154-1.002,4.599-1.503,7.33-1.503c3.097,0,5.556,0.547,7.377,1.64
				S796.471,611.684,796.471,613.382z M764.508,573.86c0,0.243-0.031,0.806-0.092,1.685c-0.061,0.881-0.243,1.913-0.546,3.097
				c-0.305,1.184-0.76,2.413-1.366,3.688c-0.607,1.275-1.457,2.459-2.55,3.552s-2.475,2.004-4.144,2.732
				c-1.67,0.729-3.688,1.093-6.056,1.093c-3.886,0-6.997-1.048-9.334-3.143c-2.338-2.094-3.506-5.539-3.506-10.335
				c0-2.004,0.273-3.962,0.819-5.874c0.547-1.912,1.396-3.597,2.55-5.054s2.642-2.641,4.463-3.552
				c1.821-0.91,4.007-1.366,6.557-1.366c4.248,0,7.513,1.154,9.789,3.461C763.37,566.151,764.508,569.489,764.508,573.86z
				 M807.035,573.86c0,0.243-0.031,0.806-0.091,1.685c-0.062,0.881-0.229,1.913-0.501,3.097c-0.273,1.184-0.715,2.413-1.32,3.688
				c-0.608,1.275-1.457,2.459-2.55,3.552s-2.475,2.004-4.144,2.732c-1.671,0.729-3.72,1.093-6.146,1.093
				c-3.766,0-6.846-1.048-9.243-3.143c-2.399-2.094-3.598-5.539-3.598-10.335c0-2.004,0.273-3.962,0.82-5.874
				c0.546-1.912,1.411-3.597,2.595-5.054c1.185-1.457,2.671-2.641,4.462-3.552c1.79-0.91,3.962-1.366,6.512-1.366
				c4.31,0,7.588,1.154,9.835,3.461C805.911,566.151,807.035,569.489,807.035,573.86z"/>
			<path fill="#1F2B3B" d="M845.19,643.979c2.186-2.792,4.583-5.858,7.193-9.197c2.61-3.338,5.176-6.525,7.695-9.562
				c2.519-3.035,4.826-5.737,6.921-8.105c2.095-2.367,3.748-3.975,4.963-4.826c1.881-1.334,4.188-2.473,6.921-3.415
				c2.731-0.94,5.767-1.411,9.106-1.411c1.698,0,3.323,0.396,4.872,1.184c1.548,0.79,2.897,1.913,4.052,3.37
				c1.152,1.457,2.063,3.218,2.732,5.281c0.667,2.064,1.001,4.371,1.001,6.921c0,2.49-0.607,4.994-1.821,7.513
				c-1.215,2.52-2.731,5.054-4.553,7.604s-3.795,5.1-5.919,7.649c-2.126,2.55-4.099,5.115-5.919,7.695
				c-1.821,2.581-3.34,5.145-4.554,7.694c-1.215,2.55-1.821,5.1-1.821,7.649c0,2.186,0.531,3.749,1.594,4.689
				c1.062,0.942,2.716,1.412,4.963,1.412c1.214,0,2.534-0.41,3.961-1.229c1.426-0.819,2.898-1.896,4.417-3.232
				c1.517-1.335,3.051-2.823,4.599-4.463c1.548-1.639,3.035-3.308,4.462-5.008c1.426-1.699,2.777-3.324,4.053-4.872
				c1.274-1.548,2.427-2.868,3.46-3.961l5.464,22.31c-1.882,2.732-4.266,5.268-7.148,7.604c-2.884,2.338-6.01,4.371-9.38,6.101
				c-3.369,1.73-6.86,3.082-10.472,4.053c-3.612,0.972-7.089,1.457-10.427,1.457c-4.371,0-7.938-0.53-10.7-1.594
				c-2.763-1.062-4.933-2.473-6.511-4.234c-1.579-1.76-2.656-3.748-3.233-5.965c-0.577-2.215-0.864-4.508-0.864-6.875
				c0-1.396,0.166-3.11,0.5-5.146c0.333-2.033,0.971-4.325,1.913-6.875c0.94-2.55,2.261-5.357,3.961-8.423
				c1.699-3.065,3.916-6.359,6.647-9.881c1.093-1.093,2.095-2.079,3.005-2.959c0.911-0.88,1.699-1.67,2.368-2.368
				c0.667-0.697,1.184-1.351,1.548-1.958c0.364-0.605,0.547-1.243,0.547-1.912c0-1.275-0.228-2.307-0.684-3.096
				c-0.455-0.789-1.108-1.185-1.958-1.185c-1.032,0-2.367,0.669-4.007,2.004c-1.639,1.336-3.43,3.674-5.372,7.012l-26.772,46.988
				c-1.397,2.429-2.839,4.114-4.326,5.055c-1.488,0.941-3.202,1.411-5.145,1.411c-2.611,0-4.676-0.561-6.192-1.685
				c-1.519-1.123-2.672-2.641-3.461-4.554c-0.789-1.912-1.29-4.127-1.502-6.647c-0.214-2.519-0.319-5.204-0.319-8.059
				c0-3.461,0.121-8.044,0.364-13.751c0.242-5.705,0.606-11.975,1.093-18.805c0.485-6.829,1.139-13.978,1.958-21.445
				c0.819-7.467,1.806-14.721,2.96-21.764c0.424-2.489,0.97-5.51,1.639-9.062c0.668-3.551,1.503-7.36,2.505-11.428
				c1.001-4.066,2.186-8.302,3.551-12.704c1.366-4.4,2.944-8.681,4.735-12.84c1.79-4.157,3.81-8.118,6.056-11.884
				c2.245-3.763,4.766-7.057,7.559-9.88c2.792-2.823,5.857-5.054,9.197-6.693c3.338-1.639,6.98-2.459,10.928-2.459
				c3.096,0,5.646,0.501,7.649,1.503c2.003,1.002,3.597,2.399,4.78,4.188c1.185,1.792,2.018,3.932,2.505,6.421
				c0.485,2.489,0.729,5.19,0.729,8.104c0,5.16-0.653,10.715-1.958,16.664c-1.307,5.95-2.96,11.915-4.963,17.895
				c-2.004,5.979-4.189,11.792-6.557,17.438c-2.368,5.646-4.645,10.745-6.83,15.299c-2.186,4.553-4.113,8.394-5.782,11.52
				c-1.671,3.127-2.777,5.176-3.324,6.146l-10.836,16.209L845.19,643.979z M863.039,541.715c-1.944,0-3.613,0.608-5.009,1.821
				c-1.397,1.216-2.718,2.945-3.961,5.191c-1.245,2.246-2.49,4.979-3.734,8.195c-1.245,3.219-2.656,6.8-4.234,10.745
				c-0.972,3.461-1.866,7.044-2.687,10.746c-0.819,3.703-1.563,7.392-2.23,11.063c-0.669,3.674-1.261,7.301-1.776,10.883
				s-0.956,6.952-1.32,10.107c-0.91,7.468-1.639,14.813-2.186,22.038c1.335-4.007,2.792-8.362,4.371-13.068
				c1.578-4.704,3.142-9.348,4.69-13.933c1.548-4.583,3.005-8.924,4.371-13.021c1.365-4.099,2.504-7.573,3.414-10.427
				c0.425-1.335,1.032-3.006,1.821-5.009c0.789-2.004,1.64-4.157,2.55-6.466c0.911-2.307,1.821-4.704,2.732-7.193
				c0.91-2.489,1.744-4.887,2.504-7.194c0.759-2.307,1.38-4.462,1.867-6.466c0.485-2.003,0.729-3.702,0.729-5.1
				C864.951,542.688,864.313,541.715,863.039,541.715z"/>
		</g>
	</g>
	<path fill="#E2725C" d="M720.004,348.358c-19.516,0-46.652,11.27-90.486,11.27c-14.961,0-30.109,2.176-31.637-4.903
		c-15.119-70.103-82.77-134.115-163.74-134.115c-92.225,0-166.991,74.764-166.991,166.989c0,92.227,74.766,166.989,166.991,166.989
		c80.957,0,142.775-55.941,163.73-134.074c1.875-6.994,16.684-4.906,31.646-4.906c43.834,0,70.971,11.27,90.486,11.27v-0.037
		c21.67,0,39.242-17.572,39.242-39.241S741.674,348.358,720.004,348.358z M434.141,483.896
		c-92.401-55.105-92.186-114.109-92.186-114.109c0-26.036,21.105-47.142,47.145-47.142c21.18,0,39.092,13.966,45.041,33.189
		c5.946-19.224,23.858-33.189,45.038-33.189c26.037,0,47.142,21.105,47.142,47.142C522.205,428.232,434.141,483.896,434.141,483.896
		z M720.004,403.74c-8.914,0-16.141-7.228-16.141-16.142c0-8.913,7.227-16.141,16.141-16.141s16.141,7.228,16.141,16.141
		C736.145,396.513,728.918,403.74,720.004,403.74z"/>
</g>
</svg>
